<svg xmlns="http://www.w3.org/2000/svg" viewBox="0 0 200 200" width="100%" height="100%">
  <defs>
    <linearGradient id="grad" x1="0%" y1="0%" x2="100%" y2="100%">
      <stop offset="0%" stop-color="#7b2cbf" stop-opacity="0.7" />
      <stop offset="100%" stop-color="#5a189a" stop-opacity="0.9" />
    </linearGradient>
  </defs>
  <rect width="200" height="200" fill="#2a2a2a" rx="15" ry="15" />
  <rect x="30" y="30" width="140" height="140" fill="url(#grad)" rx="5" ry="5" />
  <g fill="white">
    <path d="M100,35 L115,50 L85,50 Z" />
    <circle cx="60" cy="80" r="5" />
    <circle cx="80" cy="60" r="5" />
    <circle cx="100" cy="80" r="5" />
    <circle cx="80" cy="100" r="5" />
    <circle cx="120" cy="60" r="5" />
    <circle cx="140" cy="80" r="5" />
    <circle cx="120" cy="100" r="5" />
    <circle cx="140" cy="120" r="5" />
    <path d="M80,140 C85,130 95,125 105,130 C115,135 120,145 115,155 C110,165 95,170 85,160 C80,155 75,150 80,140" fill="#d8c6f6" />
    <path d="M100,140 C95,135 90,138 87,143 C83,150 85,157 90,160 C95,163 105,162 107,155 C109,148 105,145 100,140" fill="#2a2a2a" />
  </g>
  <text x="100" y="180" font-family="Arial" font-size="14" font-weight="bold" fill="white" text-anchor="middle">기사의 여행</text>
</svg> 