<svg xmlns="http://www.w3.org/2000/svg" viewBox="0 0 1200 400" width="100%" height="100%">
  <defs>
    <linearGradient id="heroGrad" x1="0%" y1="0%" x2="100%" y2="100%">
      <stop offset="0%" stop-color="#7b2cbf" stop-opacity="0.8" />
      <stop offset="100%" stop-color="#3c096c" stop-opacity="0.9" />
    </linearGradient>
    <pattern id="gridPattern" patternUnits="userSpaceOnUse" width="100" height="100">
      <rect width="50" height="50" fill="#4a148c" fill-opacity="0.3" />
      <rect x="50" y="0" width="50" height="50" fill="#4a148c" fill-opacity="0.1" />
      <rect x="0" y="50" width="50" height="50" fill="#4a148c" fill-opacity="0.1" />
      <rect x="50" y="50" width="50" height="50" fill="#4a148c" fill-opacity="0.3" />
    </pattern>
  </defs>
  
  <!-- Background -->
  <rect width="1200" height="400" fill="url(#heroGrad)" />
  
  <!-- Chess board pattern -->
  <rect width="1200" height="400" fill="url(#gridPattern)" />
  
  <!-- Knight's path visualization -->
  <g stroke="#fff" stroke-width="3" stroke-opacity="0.6" fill="none">
    <path d="M200,200 L300,150 L350,250 L450,200 L500,300 L600,250 L650,350 L750,300 L800,200 L900,150 L950,250 L1000,150" />
  </g>
  
  <!-- Knight chess piece -->
  <g transform="translate(900, 200) scale(1.5)">
    <path d="M40,10 C40,10 40,15 37,20 C34,25 30,30 30,30 L25,30 L25,20 L15,30 L8,30 C8,30 7,30 7,31 C7,32 8,32 8,32 L15,32 L17,42 C17,42 17,45 14,45 C11,45 7,45 7,45 C7,45 5,45 5,47 C5,49 7,49 7,49 L43,49 C43,49 45,49 45,47 C45,45 43,45 43,45 C43,45 39,45 36,45 C33,45 33,42 33,42 L35,32 L42,32 C42,32 43,32 43,31 C43,30 42,30 42,30 L35,30 L25,10 C25,10 24,7 25,5 C26,3 27,3 27,3 C27,3 29,3 30,4 C31,5 32,7 32,7 L34,7 C34,7 34,2 30,2 C26,2 20,3 20,8 C20,13 25,20 25,20 L25,30 L20,30 C20,30 30,25 30,15 C30,5 25,3 25,3 L30,3 C30,3 29,8 35,8 C41,8 40,3 40,3 L45,3 C45,3 45,15 35,15 C35,15 35,10 40,10 Z" fill="#fff" />
  </g>
  
  <!-- Circles representing path moves -->
  <g fill="#fff" fill-opacity="0.5">
    <circle cx="200" cy="200" r="8" />
    <circle cx="300" cy="150" r="8" />
    <circle cx="350" cy="250" r="8" />
    <circle cx="450" cy="200" r="8" />
    <circle cx="500" cy="300" r="8" />
    <circle cx="600" cy="250" r="8" />
    <circle cx="650" cy="350" r="8" />
    <circle cx="750" cy="300" r="8" />
    <circle cx="800" cy="200" r="8" />
    <circle cx="900" cy="150" r="8" />
    <circle cx="950" cy="250" r="8" />
    <circle cx="1000" cy="150" r="8" />
  </g>
</svg> 